<?xml version="1.0" encoding="UTF-8"?>
<svg id="marca" enable-background="new -50 -50 400 200" version="1.1" viewBox="-50 -50 400 200" xml:space="preserve"
  xmlns="http://www.w3.org/2000/svg">
  <style type="text/css">
    .st0 {
      display: none;
    }
    .st1 {
      display: inline;
      fill: #EDEDED;
    }
    .st2 {
      display: inline;
      fill: #C6C6C6;
    }
    .st3 {
      fill: #16A961;
    }
    .st4 {
      fill: #28804D;
    }
    .st5 {
      fill: #2B5B39;
    }
    .st6 {
      fill: #AF3437;
    }
    .st7 {
      fill: #006633;
    }
    .st8 {
      fill-rule: evenodd;
      clip-rule: evenodd;
      fill: #FFFFFF;
    }
  </style>
  <g class="st0">
    <rect class="st1" x="-34.2" y="-27.2" width="373" height="211.5" />
  </g>
  <g class="st0">
    <path class="st2" d="m301.9 86.3h-17.4l-0.1 0.4-4.3 20.8-0.6 0.1-17.1 2.3-0.4 0.1-0.1 0.4-0.3 2.1c-0.2-0.5-0.5-1.1-0.9-1.7 0-0.1-0.1-0.2-0.1-0.2 1.6-1 3-2.3 4.2-3.7 1.5-1.8 2.5-4 3-6.5 0.6-3 0.4-5.7-0.7-7.9-1.2-2.4-3.1-4.1-5.6-5-2-0.7-4.8-1.1-8.7-1.1h-43.1c4-4.1 6.2-9.2 6.6-15 1.7-23.6-18.9-29-32.5-32.6-6.3-1.7-13.5-3.6-13.6-6.3 0.3-0.4 2.8-2 10.4-2s16.2 1.7 20.1 3.9l3 1.8 0.5 0.3 0.2-0.6 9.4-24.7 0.2-0.5-0.5-0.1-3.2-0.9c-1.9-0.5-3.6-1-5.1-1.4-8.8-2.5-13.1-3.8-27.1-3.8-9.7 0-20.3 3.1-28.5 8.2l0.5-1.8 0.1-0.4-0.4-0.2-2.6-1c-7.3-2.8-20-4.1-29.4-4.1-10.1 0.1-19.9 2-28.3 5.6l-1.6-0.6c-8.4-3-17.8-4.6-27-4.6-14.7-0.1-28.9 4.1-39.5 11.6-12.1 8.6-18.7 21-19.1 35.7-0.4 12.4 3.5 22.9 11.4 31.1 10 10.3 25.8 16 44.3 16 9.9 0 20.3-1.7 30.1-5l1.5-0.5c7.8 2.8 16.9 4.3 27 4.3 8.7 0 18-1.1 27.8-3.1 3.4 1 7.3 1.9 11.4 2.5l-2.5 11.9c-0.4 2-0.5 4.4-0.3 7 0.2 2 0.9 3.9 2 5.6 1.1 1.8 2.6 3.2 4.3 4.1 1.6 1 3.7 1.6 6.1 1.9 2.1 0.3 4.1 0.4 5.9 0.4 3.3 0 6.4-0.5 9-1.4 2-0.7 4.1-1.9 6-3.5 2-1.7 3.6-3.6 4.9-5.8 1.2-2.2 2.1-4.5 2.6-6.9l3.6-17.3h0.1l-6.3 30.1-0.7 3.6-0.1 0.6h18l0.1-0.4 2.9-13.9h13.6l0.1-0.4 2.7-12.8h1.1l-4.8 23.3-0.7 3.6-0.1 0.6h18l0.1-0.4 2.2-10.7 3.6 10.8 0.1 0.3h19.6l-0.2-0.6-0.5-1.6c0.5 0.4 1 0.7 1.6 1 2.3 1.3 5.4 1.9 9.6 1.9 4 0 7.5-0.9 10.5-2.7s5.2-4 6.7-6.6c1.3-2.4 2.4-5.8 3.3-10.1l4.7-22.7 0.1-0.6h-0.8zm-241.2-68.6c4.9 0 10.1 0.6 15 1.6-10 8.5-15.5 20.1-15.5 32.7 0 14.5 4.9 26 14.6 34.2-5.5 1.2-11.2 1.8-16.4 1.8-19.9 0-41.2-9.2-41.2-35 0-9.4 3-17.2 9-23.2 7.6-7.6 20.2-12.1 34.5-12.1zm75.4 13.9c-1.2 23.7 19.6 29.1 33.3 32.7 9.2 2.4 13.3 3.8 12.8 6.1-0.3 1.3-3.4 2.7-9.7 2.7-9.1 0-20.6-2.7-27.3-5.3l-3-1.2-0.5-0.2-0.2 0.5-1 3c-0.7 2.1-1.4 4.3-2.1 7-5.8 1.4-11.9 2.1-17.5 2.1-8.3 0-35.4-2-35.4-27.1 0-8.9 3.5-15.8 10.5-20.5 6.2-4.3 15.1-6.6 25-6.6 5.3 0 10.8 0.7 15.9 2-0.4 1.7-0.8 3.3-0.8 4.8zm40 78.9c-0.2 1.2-0.7 2-1.3 2.5s-1.4 0.8-2.5 0.8c-0.9 0-1.3-0.2-1.3-0.3-0.1-0.1-0.2-0.6 0-1.6l2.7-13.1c1.7-0.1 3.3-0.3 4.9-0.4l-2.5 12.1z" />
  </g>
  <path class="st3" d="m84.3 87.2l2.7 4.5c-9.6 3.2-19.5 4.8-29 4.8-28.5 0-53.1-14.5-52.2-43.5 0.9-29.2 27.7-44 55.5-44 8.8 0 17.7 1.5 25.8 4.4l-2.7 4.7c-7.6-2.6-15.8-3.9-23.8-3.9-24.3 0-47 12.2-47 38.8 0 25.9 20.2 38.5 44.7 38.5 8.5 0 17.3-1.4 26-4.3z" />
  <path class="st4" d="m142.4 79.7l2.2 12.4c-9.8 2.1-19.2 3.2-28 3.2-30.8 0-52.9-13.7-52.9-43.3 0-24 21.9-43.2 54.5-43.5 8.4 0 21 1.1 28.1 3.8l-3.5 12.5c-6.8-2.3-14.3-3.5-21.7-3.5-20 0-39 9.1-39 30.7 0 21.9 18.4 30.6 38.9 30.6 7.1 0 14.5-1 21.4-2.9z" />
  <path class="st5" d="m213 71c-1.3 18.1-22.1 23.5-41.4 24.4-1.1 0.1-2.2 0.1-3.3 0.1-10.7 0-23.1-2.4-29.7-5.9 1.9-5.6 3.4-12.8 5.3-18.5 7.1 2.8 19.2 5.5 28.6 5.5 6.9 0 12.3-1.5 13.1-5.5 3-14.8-47.8-4.5-46.1-39.3 0.6-12.3 20.5-24.1 38.9-24.1 15.8 0 18.6 1.6 31.2 5.1-2.3 6.1-4.7 12.2-7 18.3-4.5-2.6-13.9-4.4-21.9-4.4-7.5 0-13.9 1.6-13.9 5.4 0.1 14.2 48.6 5 46.2 38.9z" />
  <path class="st6" d="m298.3 89.8l-4 19.1c-0.8 4-1.8 7-3 9.1-1.1 2.1-2.9 3.9-5.4 5.3-2.4 1.5-5.3 2.2-8.7 2.2-3.5 0-6.2-0.5-7.9-1.4-1.8-1-3-2.4-3.6-4.2-0.7-1.8-0.8-4.1-0.5-6.8l10.7-1.4c-0.3 1.5-0.4 2.7-0.3 3.4 0.1 0.8 0.4 1.4 0.9 1.8 0.3 0.3 0.9 0.5 1.7 0.5 1.2 0 2.2-0.5 3-1.3 0.8-0.9 1.3-2.4 1.8-4.6l4.5-21.6h10.8z" />
  <path class="st6" d="m264 93.8c-0.8-1.6-2-2.6-3.6-3.2s-4.1-0.9-7.5-0.9h-18.1l-7.3 35.1h10.9l3-14.2h1c1 0 1.8 0.3 2.5 0.8 0.5 0.4 1 1.3 1.4 2.7l3.6 10.7h12.1l-3.1-10.2c-0.2-0.5-0.5-1.2-1.1-2.2-0.6-0.9-1-1.5-1.3-1.8-0.5-0.4-1.4-0.9-2.6-1.3 1.7-0.4 3-0.8 4.1-1.4 1.6-0.9 3-2 4.1-3.4s1.9-3.1 2.3-5c0.5-2.2 0.4-4.1-0.4-5.7zm-10.6 6.6c-0.2 0.8-0.5 1.5-1.1 2-0.6 0.6-1.3 0.9-2 1.1-1.5 0.3-2.5 0.5-3 0.5h-4.6l1.5-7.1h4.8c2 0 3.3 0.3 3.9 0.9 0.5 0.6 0.7 1.4 0.5 2.6z" />
  <polygon class="st6" points="211.3 97.3 210.1 103.4 223.7 103.4 222.2 110.5 208.6 110.5 205.6 124.9 194.7 124.9 202 89.8 228.8 89.8 227.3 97.3" />
  <path class="st6" d="m194.8 89.8l-4.4 20.9c-0.4 2.1-1.2 4-2.2 5.9-1 1.8-2.4 3.5-4 4.8-1.7 1.4-3.3 2.3-5 2.9-2.3 0.8-4.9 1.2-7.8 1.2-1.7 0-3.6-0.1-5.5-0.4-2-0.2-3.5-0.7-4.8-1.4-1.2-0.7-2.2-1.7-3.1-3-0.8-1.3-1.3-2.7-1.5-4-0.2-2.2-0.1-4.2 0.2-5.9l4.4-20.9h10.9l-4.5 21.4c-0.4 1.9-0.2 3.4 0.6 4.5s2.2 1.6 4.1 1.6 3.4-0.5 4.7-1.6 2.1-2.6 2.5-4.5l4.5-21.4h10.9z" />
  <path class="st3" d="m262.9 50v-6.5c8.1 0 14.6-6.6 14.6-14.6s-6.6-14.6-14.6-14.6v-6.5c11.6 0 21.1 9.5 21.1 21.1s-9.4 21.1-21.1 21.1z" />
  <rect class="st5" x="238.6" y="7.8" width="16.2" height="6.5" />
  <path class="st4" d="m246.7 50c-8.9 0-16.2-7.3-16.2-16.2h6.5c0 5.4 4.4 9.8 9.8 9.8s9.8-4.4 9.8-9.8-4.6-9.8-9.9-9.8h-8.1v-6.5h8.1c8.9 0 16.2 7.3 16.2 16.2s-7.3 16.3-16.2 16.3z" />
  <path class="st6" d="m239 65h-5.3c-0.5 1.1-0.9 2-1.1 2.7-0.2 0.6-0.3 1.2-0.3 1.7v0.2h-0.3-0.2c-0.4 0-0.7-0.1-1-0.3-0.2-0.2-0.3-0.4-0.3-0.8s0.6-1.8 1.9-4.3 2.4-4.9 3.3-7.1c-0.1-0.1-0.2-0.3-0.3-0.4s-0.2-0.3-0.4-0.4c0.2-0.3 0.5-0.5 0.7-0.7 0.2-0.1 0.4-0.2 0.6-0.2 0.3 0 0.6 0.2 0.8 0.5 0.3 0.4 0.6 1 0.9 1.8s0.7 1.8 1.3 3.1c1.8 4.6 3.1 7.2 3.8 7.9-0.2 0.3-0.5 0.5-0.7 0.6s-0.4 0.2-0.7 0.2c-0.7 0-1.4-1.1-2.2-3.4-0.3-0.5-0.4-0.8-0.5-1.1zm-2.6-6.3l-0.5 1.1c-0.8 1.8-1.3 3.1-1.7 3.9h4.1c-0.3-0.9-0.7-1.8-1-2.6-0.2-0.9-0.5-1.7-0.9-2.4z" />
  <path class="st6" d="m256.5 69.6c-1.2-1.2-2.8-3-5-5.5-2.1-2.5-3.7-4.2-4.7-5.3 0 2.5 0.1 5 0.1 7.8v1.3c0 0.6-0.1 1.1-0.2 1.3s-0.4 0.3-0.8 0.3c-0.2 0-0.5 0-0.8-0.1s-0.5-0.2-0.8-0.4c0.4-0.6 0.6-1.5 0.7-2.6s0.2-3.1 0.2-6c0-1.3-0.1-2.3-0.2-2.9-0.2-0.6-0.5-1-0.9-1.2 0.3-0.3 0.5-0.6 0.8-0.7 0.2-0.1 0.4-0.2 0.7-0.2 0.2 0 0.4 0.1 0.6 0.2s0.5 0.4 0.7 0.7l0.4 0.4c2.5 3 5.3 6.2 8.4 9.7v-2.6-1.9c0-1.7-0.1-3.1-0.2-4s-0.4-1.6-0.7-2.2c0.3-0.2 0.6-0.3 0.8-0.3 0.2-0.1 0.5-0.1 0.7-0.1 0.4 0 0.6 0.1 0.8 0.3 0.1 0.2 0.2 0.7 0.2 1.4 0 0.4 0 1.5-0.1 3.2s-0.1 3.2-0.1 4.4c0 0.8 0 1.6 0.1 2.3 0 0.7 0.1 1.4 0.2 2l-0.9 0.7z" />
  <path class="st6" d="m267.3 69.8c-1 0-1.9-0.2-2.8-0.5s-1.6-0.8-2.3-1.4c-0.7-0.7-1.2-1.4-1.6-2.3s-0.5-1.9-0.5-3 0.2-2.1 0.6-3 0.9-1.7 1.7-2.4c0.7-0.7 1.6-1.2 2.5-1.6 1-0.4 2-0.5 3.1-0.5 2.2 0 4 0.6 5.3 1.9s2 2.9 2 5c0 1-0.2 2-0.5 2.9-0.4 0.9-0.9 1.7-1.6 2.4-0.8 0.8-1.7 1.4-2.7 1.9-0.9 0.4-2 0.6-3.2 0.6zm6-7.7c0-1.7-0.5-3-1.5-4s-2.3-1.5-4-1.5-3.1 0.5-4.1 1.6-1.5 2.5-1.5 4.2 0.5 3.1 1.5 4.1c1 1.1 2.3 1.6 3.9 1.6 1.7 0 3.1-0.6 4.1-1.7 1.1-1.1 1.6-2.5 1.6-4.3z" />
  <path class="st6" d="m277.5 67.3c0.3 0.2 0.6 0.3 0.9 0.3 0.3 0.1 0.6 0.1 0.9 0.1 0.8 0 1.4-0.2 1.8-0.5 0.4-0.4 0.7-0.8 0.7-1.4 0-0.7-0.6-1.6-1.8-2.5l-0.1-0.1c-1.7-1.4-2.5-2.5-2.5-3.6 0-0.5 0.1-0.9 0.3-1.4s0.5-0.9 0.9-1.3c0.6-0.6 1.2-1 1.9-1.3s1.4-0.4 2.1-0.4c0.5 0 0.9 0.1 1.1 0.3 0.3 0.2 0.4 0.4 0.4 0.8 0 0.1 0 0.3-0.1 0.5s-0.2 0.4-0.4 0.7c-0.3-0.1-0.5-0.2-0.8-0.2s-0.5-0.1-0.8-0.1c-0.8 0-1.5 0.2-2 0.6s-0.7 0.9-0.7 1.5c0 0.4 0.1 0.7 0.3 1.1 0.2 0.3 0.6 0.7 1.1 1.1l0.3 0.3c1.8 1.5 2.7 2.7 2.7 3.8 0 0.4-0.1 0.8-0.2 1.2s-0.4 0.8-0.6 1.1c-0.5 0.6-1.1 1.1-1.8 1.4s-1.5 0.5-2.3 0.5c-0.6 0-1-0.1-1.3-0.3s-0.4-0.5-0.4-0.8c0-0.2 0-0.4 0.1-0.5 0-0.4 0.1-0.7 0.3-0.9z" />
  <path class="st7" d="m226.6 77.3c1.3 0.3 2.8 0.6 4.3 0.9 1.5 0.2 3 0.4 4.5 0.6 3 0.3 6.1 0.4 9.1 0.5 6.1 0 12.3-0.4 18.4-1.4 6.1-0.9 12.2-2.1 18.2-3.6 3-0.8 6-1.7 8.9-2.8 1.4-0.6 2.9-1.2 4.3-1.9s2.8-1.5 3.9-2.6c-1 1.2-2.4 2-3.7 2.9-1.3 0.8-2.7 1.5-4.2 2.2-2.8 1.3-5.8 2.4-8.7 3.5-5.9 2-12 3.6-18.1 5s-12.4 2.3-18.8 2.7c-3.2 0.2-6.4 0.3-9.6 0.2-1.6 0-3.2-0.1-4.8-0.3-1.6-0.1-3.2-0.3-4.9-0.6-1.4-0.3-2.4-1.7-2.1-3.1s1.7-2.4 3.1-2.1c0-0.1 0.1-0.1 0.2-0.1z" />
  <path class="st8" d="m21 136.4c-0.5-0.2-1.1-0.4-1.6-0.5-0.6-0.1-1.1-0.2-1.7-0.2-0.7 0-1.4 0.1-2.1 0.3s-1.4 0.5-2 0.8c-0.7 0.4-1.3 0.8-1.8 1.3s-1 1-1.4 1.6-0.7 1.2-1 1.8-0.5 1.3-0.6 2c-0.2 1.1-0.1 2.1 0.1 3s0.7 1.8 1.4 2.5c0.4 0.5 0.9 0.9 1.5 1.2 0.5 0.3 1.1 0.6 1.7 0.7 0.6 0.2 1.3 0.3 2 0.3 0.4 0 0.8 0 1.1-0.1 0.4-0.1 0.7-0.1 1.1-0.2s0.8-0.2 1.2-0.4l0.7-4.6c-0.3 0.3-0.7 0.6-1.1 0.8s-0.8 0.4-1.2 0.5-0.8 0.2-1.3 0.2c-0.6 0-1.1-0.1-1.6-0.3s-0.8-0.5-1.1-0.8c-0.3-0.4-0.5-0.8-0.6-1.3s-0.1-1 0-1.6 0.3-1.1 0.5-1.6c0.3-0.5 0.6-0.9 1-1.3s0.9-0.7 1.4-0.9 1.1-0.3 1.6-0.3c0.4 0 0.9 0.1 1.2 0.2 0.4 0.1 0.7 0.3 1.1 0.5 0.3 0.2 0.6 0.5 0.8 0.9l0.7-4.5zm3.8 7.9c0.1-0.3 0.3-0.6 0.5-0.9 0.2-0.2 0.5-0.4 0.8-0.5s0.6-0.2 1-0.2c0.3 0 0.6 0.1 0.9 0.2s0.5 0.3 0.6 0.5c0.2 0.2 0.2 0.5 0.3 0.8h-4.1v0.1zm7.2 1.6l-0.1 0.4h-7.4c-0.1 0.7 0 1.3 0.3 1.7s0.8 0.6 1.6 0.6c0.4 0 0.7-0.1 1-0.2s0.6-0.4 0.8-0.7h3.4c-0.2 0.6-0.6 1.1-1 1.5s-0.8 0.8-1.4 1.1c-0.5 0.3-1 0.5-1.6 0.6s-1.1 0.2-1.7 0.2c-0.8 0-1.6-0.1-2.2-0.3-0.7-0.2-1.2-0.6-1.7-1-0.4-0.4-0.8-1-0.9-1.7-0.2-0.7-0.2-1.4-0.1-2.3 0.1-0.8 0.4-1.6 0.8-2.2 0.4-0.7 0.8-1.2 1.4-1.7s1.2-0.8 1.9-1 1.5-0.4 2.3-0.4c1.2 0 2.1 0.2 2.8 0.7 0.7 0.4 1.3 1.1 1.6 1.9 0.3 0.7 0.3 1.7 0.2 2.8zm5.9-5.2h-3.5l-1.6 10h3.5l0.8-5.2c0.1-0.3 0.1-0.6 0.2-0.9s0.2-0.5 0.4-0.7 0.4-0.4 0.6-0.5c0.3-0.1 0.6-0.2 0.9-0.2s0.6 0.1 0.8 0.2 0.3 0.3 0.4 0.5 0.1 0.4 0.1 0.6v0.7c0 0.2-0.1 0.4-0.1 0.6l-0.8 4.9h3.5l1-6.2c0.1-0.6 0.1-1.2 0.1-1.7-0.1-0.5-0.2-0.9-0.5-1.3-0.2-0.4-0.6-0.6-1-0.8s-1-0.3-1.7-0.3c-0.5 0-0.9 0-1.3 0.2-0.4 0.1-0.8 0.3-1.1 0.5-0.4 0.2-0.7 0.6-1 1l0.3-1.4zm12.8 2.9h2l0.5-2.9h-2l0.5-3h-3.5l-0.5 3h-1.1l-0.5 2.9h1.1l-1.1 7.1h3.5l1.1-7.1zm7.1-2.9l-0.3 1.6c0.4-0.6 1-1.1 1.6-1.3 0.6-0.3 1.3-0.4 1.9-0.4h0.7l-0.5 3.4c-0.2-0.1-0.4-0.2-0.7-0.3-0.2 0-0.5-0.1-0.8-0.1-0.5 0-0.9 0.1-1.2 0.2l-0.9 0.6c-0.2 0.3-0.4 0.6-0.5 1l-0.3 1.2-0.6 4h-3.5l1.6-10h3.5v0.1zm10.2-0.3c-0.6 0-1.3 0.1-1.9 0.2-0.6 0.2-1.2 0.4-1.7 0.7-0.6 0.3-1 0.7-1.5 1.1-0.4 0.4-0.8 0.9-1.1 1.5s-0.5 1.2-0.6 1.9-0.1 1.3 0 1.9 0.3 1.1 0.6 1.5 0.7 0.8 1.2 1.1 1 0.5 1.5 0.7c0.6 0.2 1.2 0.2 1.8 0.2s1.3-0.1 1.9-0.2c0.6-0.2 1.2-0.4 1.8-0.7 0.5-0.3 1-0.7 1.5-1.1 0.4-0.4 0.8-0.9 1.1-1.5s0.5-1.2 0.6-1.9 0.1-1.3 0-1.9-0.3-1.1-0.6-1.5-0.7-0.8-1.1-1.1c-0.5-0.3-1-0.5-1.5-0.7-0.7-0.1-1.3-0.2-2-0.2zm-0.4 3.1c0.5 0 0.9 0.1 1.2 0.3s0.5 0.5 0.6 0.8 0.2 0.7 0.1 1.1-0.2 0.8-0.4 1.1-0.5 0.6-0.9 0.8-0.8 0.3-1.3 0.3-0.9-0.1-1.2-0.3-0.5-0.5-0.6-0.8-0.2-0.7-0.1-1.1 0.2-0.8 0.5-1.1c0.2-0.3 0.5-0.6 0.9-0.8 0.2-0.2 0.7-0.3 1.2-0.3zm20.6 7.2h3.5l2.6-16.1h-3.5l-1.1 7.1c-0.2-0.3-0.5-0.5-0.8-0.7s-0.6-0.3-1-0.4-0.7-0.1-1.1-0.1c-0.7 0-1.4 0.2-2.1 0.4-0.7 0.3-1.2 0.7-1.8 1.2-0.5 0.5-0.9 1.1-1.3 1.7-0.3 0.6-0.6 1.3-0.7 2-0.1 0.6-0.1 1.1 0 1.7 0.1 0.5 0.2 1 0.4 1.5 0.2 0.4 0.5 0.8 0.9 1.2 0.4 0.3 0.8 0.6 1.3 0.8s1 0.3 1.6 0.3c0.4 0 0.8-0.1 1.2-0.2s0.8-0.3 1.1-0.5c0.4-0.2 0.7-0.5 0.9-0.8l-0.1 0.9zm-1-7.2c0.5 0 0.9 0.1 1.2 0.3s0.5 0.5 0.6 0.8 0.2 0.7 0.1 1.1-0.2 0.8-0.4 1.1-0.5 0.6-0.9 0.8-0.8 0.3-1.3 0.3-0.9-0.1-1.2-0.3-0.5-0.5-0.6-0.8-0.2-0.7-0.1-1.1 0.2-0.8 0.5-1.1c0.2-0.3 0.5-0.6 0.9-0.8 0.3-0.2 0.7-0.3 1.2-0.3zm10.6 0.8c0.1-0.3 0.3-0.6 0.5-0.9 0.2-0.2 0.5-0.4 0.8-0.5s0.6-0.2 1-0.2c0.3 0 0.6 0.1 0.9 0.2s0.5 0.3 0.6 0.5c0.2 0.2 0.2 0.5 0.3 0.8h-4.1v0.1zm7.1 1.6l-0.1 0.4h-7.4c-0.1 0.7 0 1.3 0.3 1.7s0.8 0.6 1.6 0.6c0.4 0 0.7-0.1 1-0.2s0.6-0.4 0.8-0.7h3.4c-0.2 0.6-0.6 1.1-1 1.5s-0.9 0.8-1.4 1.1-1 0.5-1.6 0.6-1.1 0.2-1.7 0.2c-0.8 0-1.6-0.1-2.2-0.3-0.7-0.2-1.2-0.6-1.7-1-0.4-0.4-0.8-1-0.9-1.7-0.2-0.7-0.2-1.4-0.1-2.3 0.1-0.8 0.4-1.6 0.8-2.2 0.4-0.7 0.8-1.2 1.4-1.7s1.2-0.8 1.9-1 1.5-0.4 2.3-0.4c1.2 0 2.1 0.2 2.8 0.7 0.7 0.4 1.3 1.1 1.6 1.9 0.4 0.7 0.4 1.7 0.2 2.8zm20.4-9.5c-0.5-0.2-1.1-0.4-1.6-0.5-0.6-0.1-1.1-0.2-1.7-0.2-0.7 0-1.4 0.1-2.1 0.3s-1.4 0.5-2 0.8c-0.7 0.4-1.3 0.8-1.8 1.3s-1 1-1.4 1.6-0.7 1.2-1 1.8-0.5 1.3-0.6 2c-0.2 1.1-0.1 2.1 0.1 3s0.7 1.8 1.4 2.5c0.4 0.5 0.9 0.9 1.5 1.2 0.5 0.3 1.1 0.6 1.7 0.7 0.6 0.2 1.3 0.3 2 0.3 0.4 0 0.8 0 1.1-0.1 0.4-0.1 0.7-0.1 1.1-0.2s0.8-0.2 1.2-0.4l0.7-4.6c-0.3 0.3-0.7 0.6-1.1 0.8s-0.8 0.4-1.2 0.5-0.8 0.2-1.3 0.2c-0.6 0-1.1-0.1-1.6-0.3s-0.8-0.5-1.1-0.8c-0.3-0.4-0.5-0.8-0.6-1.3s-0.1-1 0-1.6 0.3-1.1 0.5-1.6c0.3-0.5 0.6-0.9 1-1.3s0.9-0.7 1.4-0.9 1.1-0.3 1.6-0.3c0.4 0 0.9 0.1 1.2 0.2 0.4 0.1 0.7 0.3 1.1 0.5 0.3 0.2 0.6 0.5 0.8 0.9l0.7-4.5zm5.1 4.3h-3.5l-1.6 10h3.5l1.6-10zm-0.8-5.8c-0.4 0-0.7 0.1-1 0.3s-0.6 0.4-0.8 0.7-0.4 0.6-0.4 1c-0.1 0.4 0 0.7 0.1 1s0.3 0.5 0.6 0.7 0.6 0.3 1 0.3 0.7-0.1 1-0.3 0.6-0.4 0.8-0.7 0.4-0.6 0.4-1c0.1-0.4 0-0.7-0.1-1s-0.3-0.5-0.6-0.7-0.6-0.3-1-0.3zm4.1 2.9l1.2 1.6 3.1-2.2 2.5 2.2 1.8-1.6-3.8-3.2-4.8 3.2zm1.4 6.5c0.1-0.3 0.3-0.6 0.5-0.9 0.2-0.2 0.5-0.4 0.8-0.5s0.6-0.2 1-0.2c0.3 0 0.6 0.1 0.9 0.2s0.5 0.3 0.6 0.5c0.2 0.2 0.2 0.5 0.3 0.8h-4.1v0.1zm7.1 1.6c0.2-1.1 0.1-2.1-0.2-2.9s-0.8-1.5-1.6-1.9c-0.7-0.4-1.7-0.7-2.8-0.7-0.8 0-1.6 0.1-2.3 0.4-0.7 0.2-1.4 0.6-1.9 1-0.6 0.5-1 1-1.4 1.7s-0.6 1.4-0.8 2.2c-0.1 0.9-0.1 1.6 0.1 2.3s0.5 1.2 0.9 1.7 1 0.8 1.7 1 1.4 0.3 2.2 0.3c0.6 0 1.1-0.1 1.7-0.2s1.1-0.3 1.6-0.6 1-0.6 1.4-1.1c0.4-0.4 0.7-0.9 1-1.5h-3.4c-0.2 0.3-0.5 0.6-0.8 0.7s-0.6 0.2-1 0.2c-0.7 0-1.3-0.2-1.6-0.6s-0.4-0.9-0.3-1.7h7.4l0.1-0.3zm6-5.2h-3.5l-1.6 10h3.5l0.8-5.2c0-0.3 0.1-0.6 0.2-0.9s0.2-0.5 0.4-0.7 0.4-0.4 0.6-0.5c0.3-0.1 0.6-0.2 0.9-0.2s0.6 0.1 0.8 0.2 0.3 0.3 0.4 0.5 0.1 0.4 0.1 0.6 0 0.5-0.1 0.7c0 0.2-0.1 0.4-0.1 0.6l-0.8 4.9h3.5l1-6.2c0.1-0.6 0.1-1.2 0.1-1.7-0.1-0.5-0.2-0.9-0.5-1.3-0.2-0.4-0.6-0.6-1-0.8s-1-0.3-1.7-0.3c-0.5 0-0.9 0-1.3 0.2-0.4 0.1-0.8 0.3-1.1 0.5-0.4 0.2-0.7 0.6-1 1l0.4-1.4zm16.4 0.3c-0.3-0.2-0.7-0.3-1.1-0.4s-0.8-0.1-1.2-0.1c-0.8 0-1.5 0.1-2.3 0.4-0.7 0.3-1.4 0.6-1.9 1.1-0.6 0.5-1.1 1.1-1.5 1.7-0.4 0.7-0.6 1.4-0.8 2.2-0.1 0.8-0.1 1.5 0.1 2.1s0.5 1.2 0.9 1.6c0.4 0.5 0.9 0.8 1.6 1.1 0.6 0.3 1.3 0.4 2 0.4 0.4 0 0.9 0 1.3-0.1s0.9-0.2 1.3-0.4l0.5-3c-0.2 0.1-0.4 0.3-0.6 0.4s-0.4 0.2-0.6 0.2c-0.2 0.1-0.4 0.1-0.6 0.1-0.5 0-0.9-0.1-1.2-0.3s-0.6-0.5-0.7-0.9c-0.2-0.4-0.2-0.8-0.1-1.3 0.1-0.3 0.2-0.7 0.3-1 0.2-0.3 0.4-0.6 0.6-0.8 0.3-0.2 0.5-0.4 0.9-0.5 0.3-0.1 0.6-0.2 1-0.2 0.3 0 0.7 0.1 0.9 0.2 0.3 0.1 0.5 0.3 0.8 0.5l0.4-3zm5.8-0.3h-3.5l-1.6 10h3.5l1.6-10zm-0.8-5.8c-0.4 0-0.7 0.1-1 0.3s-0.6 0.4-0.8 0.7-0.4 0.6-0.4 1c-0.1 0.4 0 0.7 0.1 1s0.3 0.5 0.6 0.7 0.6 0.3 1 0.3 0.7-0.1 1-0.3 0.6-0.4 0.8-0.7 0.4-0.6 0.4-1c0.1-0.4 0-0.7-0.1-1s-0.3-0.5-0.6-0.7-0.7-0.3-1-0.3zm7.9 8.6c0.5 0 0.9 0.1 1.2 0.3s0.5 0.5 0.6 0.8 0.2 0.7 0.1 1.1-0.2 0.8-0.4 1.1-0.5 0.6-0.9 0.8-0.8 0.3-1.3 0.3-0.9-0.1-1.2-0.3-0.5-0.5-0.6-0.8-0.2-0.7-0.1-1.1 0.2-0.8 0.5-1.1c0.2-0.3 0.5-0.6 0.9-0.8 0.3-0.2 0.7-0.3 1.2-0.3zm6.2-2.8h-3.5l-0.2 1c-0.2-0.3-0.5-0.5-0.8-0.7s-0.6-0.3-1-0.4-0.7-0.1-1.1-0.1c-0.7 0-1.4 0.2-2.1 0.4-0.7 0.3-1.2 0.7-1.8 1.2-0.5 0.5-0.9 1.1-1.3 1.7-0.3 0.6-0.6 1.3-0.7 2-0.1 0.6-0.1 1.1 0 1.7 0.1 0.5 0.2 1 0.5 1.5 0.2 0.4 0.5 0.8 0.9 1.2 0.4 0.3 0.8 0.6 1.3 0.8s1 0.3 1.6 0.3c0.4 0 0.8-0.1 1.2-0.2s0.8-0.3 1.1-0.5c0.4-0.2 0.7-0.5 0.9-0.8l-0.2 1.1h3.5l1.7-10.2zm10 0.3c-0.5-0.2-1-0.4-1.5-0.5s-1.1-0.1-1.7-0.1c-0.4 0-0.9 0-1.3 0.1s-0.9 0.2-1.3 0.4-0.8 0.4-1.1 0.7-0.6 0.6-0.8 1-0.4 0.8-0.5 1.3c-0.1 0.4-0.1 0.8 0 1.1s0.2 0.6 0.4 0.7c0.2 0.2 0.4 0.4 0.6 0.5s0.5 0.2 0.8 0.3 0.5 0.1 0.8 0.2 0.5 0.1 0.7 0.2 0.3 0.2 0.5 0.3c0.1 0.1 0.1 0.3 0.1 0.5s-0.1 0.3-0.3 0.4c-0.1 0.1-0.3 0.2-0.5 0.2s-0.3 0.1-0.5 0.1c-0.3 0-0.6-0.1-0.9-0.1-0.3-0.1-0.6-0.2-0.9-0.4s-0.6-0.3-0.8-0.5l-1.7 2.5c0.5 0.4 1.1 0.7 1.8 0.8 0.6 0.2 1.3 0.3 2 0.3 0.5 0 0.9 0 1.4-0.1s0.9-0.2 1.3-0.4 0.8-0.4 1.2-0.7 0.6-0.6 0.9-1c0.2-0.4 0.4-0.9 0.5-1.4s0.1-0.9 0-1.2-0.3-0.6-0.5-0.9c-0.2-0.2-0.5-0.4-0.8-0.6-0.3-0.1-0.7-0.3-1.1-0.3-0.1 0-0.3-0.1-0.4-0.1-0.2 0-0.3-0.1-0.5-0.1-0.2-0.1-0.3-0.1-0.4-0.2s-0.1-0.2-0.1-0.4c0-0.1 0.1-0.2 0.2-0.3s0.2-0.2 0.3-0.2c0.1-0.1 0.3-0.1 0.4-0.1h0.4c0.2 0 0.4 0 0.6 0.1 0.2 0 0.4 0.1 0.6 0.2l0.6 0.3 1.5-2.6zm14.9 9.7h3.5l2.6-16.1h-3.5l-1.1 7.1c-0.2-0.3-0.5-0.5-0.8-0.7s-0.6-0.3-1-0.4-0.7-0.1-1.1-0.1c-0.7 0-1.4 0.2-2.1 0.4-0.7 0.3-1.2 0.7-1.8 1.2-0.5 0.5-0.9 1.1-1.3 1.7-0.3 0.6-0.6 1.3-0.7 2-0.1 0.6-0.1 1.1 0 1.7 0.1 0.5 0.2 1 0.5 1.5 0.2 0.4 0.5 0.8 0.9 1.2 0.4 0.3 0.8 0.6 1.3 0.8s1 0.3 1.6 0.3c0.4 0 0.8-0.1 1.2-0.2s0.8-0.3 1.1-0.5c0.4-0.2 0.7-0.5 0.9-0.8l-0.2 0.9zm-1-7.2c0.5 0 0.9 0.1 1.2 0.3s0.5 0.5 0.6 0.8 0.2 0.7 0.1 1.1-0.2 0.8-0.5 1.1c-0.2 0.3-0.5 0.6-0.9 0.8s-0.8 0.3-1.3 0.3-0.9-0.1-1.2-0.3-0.5-0.5-0.6-0.8-0.2-0.7-0.1-1.1 0.2-0.8 0.5-1.1c0.2-0.3 0.5-0.6 0.9-0.8s0.8-0.3 1.3-0.3zm13.1 0c0.5 0 0.9 0.1 1.2 0.3s0.5 0.5 0.6 0.8 0.2 0.7 0.1 1.1-0.2 0.8-0.5 1.1c-0.2 0.3-0.5 0.6-0.9 0.8s-0.8 0.3-1.3 0.3-0.9-0.1-1.2-0.3-0.5-0.5-0.6-0.8-0.2-0.7-0.1-1.1 0.2-0.8 0.4-1.1 0.5-0.6 0.9-0.8c0.5-0.2 0.9-0.3 1.4-0.3zm6.1-2.8l-1.6 10h-3.5l0.2-1.1c-0.3 0.3-0.6 0.6-0.9 0.8-0.4 0.2-0.7 0.4-1.1 0.5s-0.8 0.2-1.2 0.2c-0.6 0-1.1-0.1-1.6-0.3s-0.9-0.4-1.3-0.8c-0.4-0.3-0.7-0.7-0.9-1.2-0.2-0.4-0.4-0.9-0.5-1.5-0.1-0.5-0.1-1.1 0-1.7 0.1-0.7 0.3-1.4 0.7-2 0.3-0.6 0.8-1.2 1.3-1.7s1.1-0.9 1.8-1.2 1.4-0.4 2.1-0.4c0.4 0 0.8 0 1.1 0.1 0.4 0.1 0.7 0.2 1 0.4s0.6 0.4 0.8 0.7l0.2-1h3.4v0.2zm19.3-3.8c-0.4-0.2-0.8-0.5-1.3-0.6-0.5-0.2-1-0.3-1.5-0.4s-1-0.1-1.5-0.1c-0.7 0-1.4 0.1-2.1 0.3s-1.2 0.6-1.8 1c-0.5 0.4-1 0.9-1.3 1.5s-0.6 1.3-0.7 2c-0.1 0.6-0.1 1 0 1.5 0.1 0.4 0.2 0.7 0.4 1s0.4 0.5 0.7 0.7 0.6 0.4 1 0.5 0.8 0.3 1.3 0.4c0.2 0 0.3 0.1 0.5 0.2s0.4 0.1 0.6 0.2 0.4 0.2 0.5 0.3c0.2 0.1 0.3 0.3 0.4 0.4 0.1 0.2 0.1 0.3 0.1 0.6s-0.1 0.5-0.3 0.7c-0.1 0.2-0.3 0.3-0.5 0.5l-0.6 0.3c-0.2 0.1-0.5 0.1-0.7 0.1-0.4 0-0.8-0.1-1.2-0.2s-0.7-0.3-1-0.5-0.6-0.5-0.9-0.8l-2.1 3.1c0.7 0.5 1.4 0.9 2.2 1.2s1.7 0.4 2.6 0.4c0.5 0 1 0 1.5-0.1s1-0.2 1.5-0.4 0.9-0.5 1.4-0.8c0.4-0.3 0.8-0.7 1.1-1.1s0.5-0.9 0.7-1.4 0.3-1 0.4-1.5c0.1-0.6 0.1-1.1 0-1.5s-0.3-0.8-0.6-1.1-0.6-0.6-1-0.8-0.9-0.4-1.3-0.5l-0.9-0.3c-0.2-0.1-0.3-0.1-0.5-0.2s-0.3-0.2-0.5-0.3-0.3-0.2-0.4-0.4-0.1-0.3-0.1-0.5 0.1-0.4 0.2-0.5c0.1-0.2 0.3-0.3 0.5-0.4s0.4-0.2 0.6-0.2 0.4-0.1 0.6-0.1c0.5 0 0.9 0.1 1.3 0.3s0.8 0.4 1.1 0.7l1.6-3.2zm6.5 6.6c0.5 0 0.9 0.1 1.2 0.3s0.5 0.5 0.6 0.8 0.2 0.7 0.1 1.1-0.2 0.8-0.5 1.1c-0.2 0.3-0.5 0.6-0.9 0.8s-0.8 0.3-1.3 0.3-0.9-0.1-1.2-0.3-0.5-0.5-0.6-0.8-0.2-0.7-0.1-1.1 0.2-0.8 0.4-1.1 0.5-0.6 0.9-0.8c0.5-0.2 0.9-0.3 1.4-0.3zm6.1-2.8h-3.5l-0.2 1c-0.2-0.3-0.5-0.5-0.8-0.7s-0.6-0.3-1-0.4-0.7-0.1-1.1-0.1c-0.7 0-1.4 0.2-2.1 0.4-0.7 0.3-1.2 0.7-1.8 1.2-0.5 0.5-0.9 1.1-1.3 1.7-0.3 0.6-0.6 1.3-0.7 2-0.1 0.6-0.1 1.1 0 1.7 0.1 0.5 0.2 1 0.5 1.5 0.2 0.4 0.5 0.8 0.9 1.2 0.4 0.3 0.8 0.6 1.3 0.8s1 0.3 1.6 0.3c0.4 0 0.8-0.1 1.2-0.2s0.8-0.3 1.1-0.5c0.4-0.2 0.7-0.5 0.9-0.8l-0.2 1.1h3.5l1.7-10.2zm11.4-4.4l-1.9-1.6-3.3 3.3 1.4 1.1 3.8-2.8zm-9.1 4.4l-1 6c-0.1 0.8-0.1 1.5 0.1 2.1s0.5 1 0.9 1.3 1 0.6 1.6 0.7 1.3 0.2 2.1 0.2 1.5-0.1 2.1-0.2c0.7-0.1 1.3-0.4 1.8-0.7s1-0.8 1.3-1.3c0.4-0.6 0.6-1.2 0.7-2.1l1-6h-3.5l-0.8 5.3c-0.1 0.4-0.2 0.8-0.3 1.1s-0.4 0.6-0.6 0.8c-0.3 0.2-0.7 0.3-1.1 0.3s-0.7-0.1-0.9-0.2-0.4-0.3-0.5-0.4c-0.1-0.2-0.1-0.4-0.2-0.7 0-0.3 0-0.6 0.1-0.9l0.8-5.3h-3.6zm18.8 10h3.5l2.6-16.1h-3.5l-1.1 7.1c-0.2-0.3-0.5-0.5-0.8-0.7s-0.6-0.3-1-0.4-0.7-0.1-1.1-0.1c-0.7 0-1.4 0.2-2.1 0.4-0.7 0.3-1.2 0.7-1.8 1.2-0.5 0.5-0.9 1.1-1.3 1.7-0.3 0.6-0.6 1.3-0.7 2-0.1 0.6-0.1 1.1 0 1.7 0.1 0.5 0.2 1 0.4 1.5 0.2 0.4 0.5 0.8 0.9 1.2 0.4 0.3 0.8 0.6 1.3 0.8s1 0.3 1.6 0.3c0.4 0 0.8-0.1 1.2-0.2s0.8-0.3 1.1-0.5c0.4-0.2 0.7-0.5 0.9-0.8l-0.1 0.9zm-1-7.2c0.5 0 0.9 0.1 1.2 0.3s0.5 0.5 0.6 0.8 0.2 0.7 0.1 1.1-0.2 0.8-0.5 1.1c-0.2 0.3-0.5 0.6-0.9 0.8s-0.8 0.3-1.3 0.3-0.9-0.1-1.2-0.3-0.5-0.5-0.6-0.8-0.2-0.7-0.1-1.1 0.2-0.8 0.5-1.1c0.2-0.3 0.5-0.6 0.9-0.8s0.8-0.3 1.3-0.3zm10.7 0.8c0.1-0.3 0.3-0.6 0.5-0.9 0.2-0.2 0.5-0.4 0.8-0.5s0.6-0.2 1-0.2c0.3 0 0.6 0.1 0.9 0.2s0.5 0.3 0.6 0.5c0.2 0.2 0.2 0.5 0.3 0.8h-4.1v0.1zm7.1 1.6l-0.1 0.4h-7.4c-0.1 0.7 0 1.3 0.3 1.7s0.8 0.6 1.6 0.6c0.4 0 0.7-0.1 1-0.2s0.6-0.4 0.8-0.7h3.4c-0.2 0.6-0.6 1.1-1 1.5s-0.8 0.8-1.4 1.1c-0.5 0.3-1 0.5-1.6 0.6s-1.1 0.2-1.7 0.2c-0.8 0-1.6-0.1-2.2-0.3-0.7-0.2-1.2-0.6-1.7-1-0.4-0.4-0.8-1-0.9-1.7-0.2-0.7-0.2-1.4-0.1-2.3 0.1-0.8 0.4-1.6 0.8-2.2 0.4-0.7 0.8-1.2 1.4-1.7s1.2-0.8 1.9-1 1.5-0.4 2.3-0.4c1.2 0 2.1 0.2 2.8 0.7 0.7 0.4 1.3 1.1 1.6 1.9 0.3 0.7 0.4 1.7 0.2 2.8z" />
</svg>
