<?xml version="1.0" encoding="utf-8"?>
<!-- Generator: Adobe Illustrator 19.0.0, SVG Export Plug-In . SVG Version: 6.00 Build 0)  -->
<svg version="1.1" xmlns="http://www.w3.org/2000/svg" xmlns:xlink="http://www.w3.org/1999/xlink" x="0px" y="0px"
	 viewBox="0 0 841.9 595.3" style="enable-background:new 0 0 841.9 595.3;" xml:space="preserve">
<style type="text/css">
	.st0{fill-rule:evenodd;clip-rule:evenodd;fill:#1DA855;}
	.st1{fill-rule:evenodd;clip-rule:evenodd;fill:#12844D;}
	.st2{fill-rule:evenodd;clip-rule:evenodd;fill:#285D3C;}
	.st3{fill-rule:evenodd;clip-rule:evenodd;fill:#FFFFFF;}
	.st4{fill-rule:evenodd;clip-rule:evenodd;fill:#AF3437;}
</style>
<g id="Camada_1">
	<g>
		<g>
			<path class="st0" d="M246.7,121.9l-7.2,12.6C158.2,106.8,50.7,133,51,227.3c0,92.3,96.4,121.4,188.1,91l7.1,12.1
				c-102.1,34-219.4-0.1-216.3-103C33,124.9,155.5,89.2,246.7,121.9z"/>
			<path class="st1" d="M329.3,108.9c22.4,0,56,3,74.9,10.2l-9.5,33.3c-66.7-22.7-161.4-6.5-161.4,72.2c0,78.6,89.1,93.5,160.3,73.7
				l5.9,32.9c-118.4,25.8-215.3-5.4-215.3-106.6C184.3,160.7,242.5,109.7,329.3,108.9z"/>
			<path class="st2" d="M554.3,168.9c6.2-16.2,12.4-32.4,18.6-48.7c-33.5-9.2-41.1-13.5-83.2-13.5c-48.9,0-101.9,31.2-103.5,64.1
				c-4.5,92.7,130.7,65.2,122.7,104.6c-5.1,25.4-78.1,13-111,0c-5.1,15-9.1,34.3-14.1,49.2c19.4,10.5,57.6,17.1,87.8,15.6
				c51.3-2.6,106.9-16.9,110.2-65c6.3-90.4-122.8-65.8-122.8-103.4C459.3,150.5,530.9,155.5,554.3,168.9z"/>
			<path class="st3" d="M502.4,322.7h34l-12.2,58.8c-1.2,5.8-3.2,11.2-6.1,16.4c-2.9,5.2-6.8,9.8-11.4,13.6c-4.2,3.5-8.8,6.4-14,8.2
				c-6.9,2.4-14.4,3.3-21.7,3.3c-5,0-10-0.4-15-1c-4.7-0.6-9.6-1.7-13.7-4.1c-3.7-2.2-6.7-5.3-9.1-8.9c-2.4-3.6-3.9-7.6-4.3-11.9
				c-0.5-5.5-0.5-11.2,0.7-16.6l12-57.8h34l-12.5,60.1c-0.7,3.2-0.9,7.1,1.3,9.9c2.1,2.7,5.6,3.3,8.9,3.3c4.1,0,7.8-1,11-3.7
				c3.3-2.7,5-6.5,5.8-10.6L502.4,322.7L502.4,322.7z M579.4,347.8h42.4l5.2-25.2h-76.6L530,421.2h34.2l7.9-38.2h36.2l5-24h-36.2
				L579.4,347.8L579.4,347.8z M698.1,378.1c0.4,0.3,0.8,0.6,1.2,0.9c1.6,1.3,3.1,3.8,4.1,5.5c1.2,1.9,2.4,4.2,3.1,6.4l9.4,30.4
				h-37.9l-10.1-30.3c-0.5-1.5-1.7-5-3-6c-1.4-1.2-3.2-1.6-5-1.6h-0.5l-7.9,37.9h-34.2l20.5-98.6H688c6.4,0,14.7,0.3,20.8,2.4
				c5,1.8,8.8,5,11.1,9.8c2.6,5.2,2.6,11.2,1.4,16.8c-1.1,5.3-3.2,10.2-6.6,14.5c-3.2,4.1-7.2,7.4-11.8,9.8
				C701.4,376.8,699.8,377.5,698.1,378.1L698.1,378.1z M664.2,360.5h9c2,0,5.4-0.8,7.4-1.2c1.6-0.3,2.9-1.1,4-2.2
				c1.2-1.2,1.9-2.5,2.3-4.2c0.3-1.6,0.4-3.4-0.8-4.6c-1.5-1.5-6.5-1.7-8.4-1.7H667L664.2,360.5L664.2,360.5z M777.9,322.7
				l-12.4,59.7c-0.7,3.4-2,8.3-4.2,11c-1.6,1.9-3.5,2.7-5.9,2.7c-0.7,0-2.2-0.1-2.8-0.6c-1-0.9-1.4-2-1.6-3.3
				c-0.3-2.4,0.3-6,0.8-8.4l0.7-3.5l-33.8,4.5l-0.3,1.9c-0.9,6.4-0.9,13.3,1.4,19.4c2,5.5,5.7,9.7,10.9,12.5
				c6.3,3.5,15.3,4.1,22.4,4.1c8.6,0,17-1.7,24.5-6.1c6.3-3.7,11.7-8.7,15.3-15.1c4-7.4,6.5-16.9,8.2-25.1l11.2-53.9H777.9z"/>
			<path class="st4" d="M779.9,325.2h28.9L798.3,376c-2.2,10.7-4.9,18.8-7.9,24.4c-3,5.6-7.8,10.3-14.3,14.2
				c-6.5,3.9-14.2,5.8-23.2,5.8c-9.4,0-16.5-1.3-21.1-3.8c-4.7-2.5-7.9-6.3-9.7-11.2c-1.8-4.9-2.2-11-1.2-18.2l28.4-3.8
				c-0.8,4.1-1.1,7.2-0.8,9.2c0.3,2,1.1,3.6,2.4,4.8c0.9,0.8,2.4,1.2,4.5,1.2c3.2,0,5.8-1.2,7.9-3.6c2-2.4,3.6-6.5,4.8-12.1
				L779.9,325.2z"/>
			<path class="st4" d="M620.4,418.7l19.4-93.5H688c8.9,0,15.6,0.8,20,2.3c4.4,1.5,7.6,4.4,9.7,8.5c2,4.1,2.4,9.2,1.2,15.1
				c-1.1,5.2-3.1,9.7-6.1,13.4c-3,3.8-6.7,6.8-11,9.2c-2.8,1.5-6.4,2.7-10.9,3.7c3.2,1.2,5.5,2.3,6.8,3.5c0.9,0.8,2.1,2.4,3.6,4.9
				c1.5,2.5,2.4,4.4,2.8,5.8l8.3,27.1h-32.6l-9.5-28.6c-1.2-3.7-2.4-6.1-3.7-7.2c-1.8-1.4-4-2.2-6.6-2.2h-2.5l-7.9,37.9H620.4
				L620.4,418.7z M661,363.1h12.2c1.3,0,3.9-0.4,7.9-1.3c2-0.4,3.8-1.4,5.3-2.9c1.5-1.6,2.5-3.4,2.9-5.4c0.6-3,0.1-5.3-1.4-6.9
				c-1.6-1.6-5-2.4-10.3-2.4h-12.7L661,363.1z"/>
			<polygon class="st4" points="552.5,325.2 623.9,325.2 619.8,345.3 577.4,345.3 574,361.6 610.2,361.6 606.2,380.5 570,380.5 
				562.1,418.7 533.1,418.7 			"/>
			<path class="st4" d="M504.5,325.2h28.8l-11.6,55.7c-1.1,5.5-3.1,10.7-5.8,15.6c-2.7,4.9-6.3,9.2-10.8,12.9
				c-4.4,3.7-8.8,6.2-13.2,7.7c-6,2.1-13,3.1-20.9,3.1c-4.5,0-9.4-0.3-14.7-1c-5.2-0.6-9.5-1.9-12.7-3.8c-3.2-1.9-6-4.6-8.2-8.1
				c-2.3-3.5-3.6-7.1-3.9-10.8c-0.5-5.9-0.3-11.2,0.6-15.8l11.6-55.7h28.8l-11.9,57.1c-1.1,5.1-0.5,9.1,1.7,11.9
				c2.2,2.9,5.8,4.3,10.9,4.3c5,0,9.2-1.4,12.6-4.2c3.4-2.8,5.6-6.8,6.7-12L504.5,325.2z"/>
		</g>
	</g>
</g>
<g id="Camada_1_1_">
</g>
</svg>
